<?xml version="1.0" encoding="utf-8" ?>
<svg baseProfile="full" height="1024" version="1.1" viewBox="0 0 1024 1024" width="1024" xmlns="http://www.w3.org/2000/svg" xmlns:ev="http://www.w3.org/2001/xml-events" xmlns:xlink="http://www.w3.org/1999/xlink"><defs /><g fill="black" fill-rule="evenodd" stroke="none"><path d="M 925,537 L 923,535 L 919,534 L 918,533 L 916,533 L 915,532 L 908,531 L 904,529 L 901,529 L 900,528 L 897,528 L 896,527 L 893,527 L 892,526 L 889,526 L 888,525 L 884,525 L 883,524 L 879,524 L 878,523 L 873,523 L 872,522 L 867,522 L 866,521 L 861,521 L 860,520 L 854,520 L 853,519 L 836,518 L 834,520 L 832,524 L 827,529 L 827,530 L 816,541 L 816,542 L 806,552 L 804,553 L 804,554 L 808,554 L 809,555 L 821,555 L 822,556 L 830,556 L 831,557 L 836,557 L 837,558 L 843,558 L 844,559 L 848,559 L 849,560 L 854,560 L 856,562 L 856,563 L 852,567 L 852,568 L 826,594 L 825,594 L 814,604 L 813,604 L 806,610 L 802,612 L 799,615 L 798,615 L 790,621 L 787,622 L 785,624 L 782,625 L 780,627 L 773,630 L 771,632 L 763,636 L 761,636 L 759,638 L 757,638 L 752,641 L 750,641 L 742,645 L 740,645 L 739,646 L 737,646 L 736,647 L 734,647 L 733,648 L 731,648 L 727,650 L 724,650 L 723,651 L 720,651 L 716,653 L 712,653 L 711,654 L 708,654 L 707,655 L 697,656 L 696,657 L 690,657 L 689,658 L 676,658 L 675,659 L 664,659 L 663,658 L 649,658 L 648,657 L 642,657 L 641,656 L 637,656 L 636,655 L 632,655 L 631,654 L 627,654 L 626,653 L 624,653 L 620,657 L 620,658 L 602,676 L 601,676 L 598,679 L 597,679 L 592,684 L 592,685 L 594,685 L 595,686 L 597,686 L 601,688 L 608,689 L 612,691 L 615,691 L 616,692 L 620,692 L 621,693 L 625,693 L 626,694 L 631,694 L 632,695 L 637,695 L 638,696 L 646,696 L 647,697 L 658,697 L 659,698 L 680,698 L 681,697 L 692,697 L 693,696 L 702,696 L 703,695 L 709,695 L 710,694 L 714,694 L 715,693 L 724,692 L 725,691 L 728,691 L 729,690 L 736,689 L 737,688 L 739,688 L 743,686 L 746,686 L 747,685 L 752,684 L 755,682 L 760,681 L 763,679 L 765,679 L 768,677 L 770,677 L 773,675 L 775,675 L 803,661 L 805,659 L 808,658 L 816,652 L 819,651 L 825,646 L 826,646 L 832,641 L 833,641 L 836,638 L 837,638 L 853,624 L 854,624 L 881,597 L 881,596 L 893,583 L 893,582 L 896,579 L 896,578 L 900,574 L 900,573 L 909,562 L 909,561 L 915,553 L 916,550 L 922,542 L 923,539 Z" /><path d="M 98,536 L 98,538 L 100,540 L 101,543 L 107,551 L 108,554 L 110,556 L 112,560 L 115,563 L 117,567 L 123,574 L 123,575 L 127,579 L 127,580 L 131,584 L 131,585 L 138,592 L 138,593 L 146,601 L 146,602 L 159,615 L 160,615 L 177,631 L 178,631 L 192,643 L 199,647 L 202,650 L 208,653 L 216,659 L 223,662 L 225,664 L 249,676 L 251,676 L 254,678 L 256,678 L 264,682 L 269,683 L 272,685 L 278,686 L 282,688 L 285,688 L 289,690 L 296,691 L 297,692 L 301,692 L 302,693 L 305,693 L 306,694 L 311,694 L 312,695 L 318,695 L 319,696 L 326,696 L 327,697 L 340,697 L 341,698 L 363,698 L 364,697 L 376,697 L 377,696 L 385,696 L 386,695 L 397,694 L 398,693 L 402,693 L 403,692 L 406,692 L 407,691 L 410,691 L 411,690 L 418,689 L 419,688 L 424,687 L 430,684 L 427,681 L 426,681 L 423,678 L 422,678 L 417,673 L 416,673 L 405,662 L 405,661 L 398,653 L 396,653 L 395,654 L 391,654 L 390,655 L 386,655 L 385,656 L 381,656 L 380,657 L 374,657 L 373,658 L 364,658 L 363,659 L 345,659 L 344,658 L 332,658 L 331,657 L 324,657 L 323,656 L 313,655 L 312,654 L 304,653 L 300,651 L 293,650 L 292,649 L 290,649 L 289,648 L 281,646 L 273,642 L 271,642 L 262,637 L 260,637 L 254,634 L 252,632 L 245,629 L 243,627 L 240,626 L 238,624 L 235,623 L 233,621 L 227,618 L 224,615 L 223,615 L 217,610 L 216,610 L 202,598 L 201,598 L 174,571 L 174,570 L 169,565 L 168,563 L 168,561 L 169,560 L 174,560 L 175,559 L 178,559 L 179,558 L 185,558 L 186,557 L 201,556 L 202,555 L 213,555 L 214,554 L 217,554 L 218,553 L 215,550 L 214,550 L 204,540 L 204,539 L 192,526 L 192,525 L 187,518 L 171,519 L 170,520 L 165,520 L 164,521 L 159,521 L 158,522 L 153,522 L 152,523 L 141,524 L 140,525 L 137,525 L 136,526 L 133,526 L 132,527 L 128,527 L 127,528 L 124,528 L 123,529 L 120,529 L 119,530 L 116,530 L 115,531 L 112,531 L 111,532 L 104,533 Z" /><path d="M 468,521 L 465,527 L 465,528 L 468,531 L 468,532 L 484,549 L 485,549 L 493,557 L 494,557 L 497,560 L 498,560 L 502,564 L 503,564 L 520,576 L 523,577 L 525,579 L 541,587 L 543,587 L 551,591 L 557,592 L 558,593 L 561,593 L 562,594 L 569,594 L 572,591 L 574,587 L 575,582 L 576,581 L 576,576 L 577,575 L 577,565 L 576,564 L 576,561 L 571,557 L 544,544 L 542,542 L 539,541 L 537,539 L 534,538 L 531,535 L 527,533 L 524,530 L 523,530 L 520,527 L 519,527 L 512,520 L 511,520 L 493,501 L 488,502 L 482,507 L 481,507 Z" /><path d="M 609,499 L 605,495 L 604,497 L 599,502 L 599,503 L 585,517 L 584,517 L 577,523 L 577,525 L 579,529 L 583,534 L 586,540 L 586,542 L 588,544 L 589,550 L 591,553 L 591,557 L 592,558 L 592,562 L 593,563 L 593,580 L 592,581 L 591,591 L 590,592 L 588,600 L 586,603 L 586,605 L 584,609 L 580,614 L 579,617 L 575,621 L 575,622 L 562,635 L 561,635 L 558,638 L 557,638 L 552,642 L 540,648 L 538,648 L 534,650 L 531,650 L 530,651 L 527,651 L 526,652 L 520,652 L 519,653 L 502,653 L 501,652 L 495,652 L 494,651 L 490,651 L 489,650 L 481,648 L 478,646 L 476,646 L 472,644 L 470,642 L 467,641 L 462,637 L 461,637 L 450,627 L 450,626 L 444,620 L 444,619 L 440,614 L 433,614 L 432,615 L 421,615 L 420,616 L 410,616 L 409,615 L 400,615 L 399,614 L 396,614 L 395,616 L 397,619 L 397,621 L 400,625 L 405,635 L 408,638 L 408,639 L 414,646 L 414,647 L 418,651 L 418,652 L 424,658 L 425,658 L 431,664 L 432,664 L 440,671 L 448,675 L 450,677 L 452,677 L 461,682 L 463,682 L 464,683 L 466,683 L 467,684 L 469,684 L 473,686 L 476,686 L 477,687 L 484,688 L 485,689 L 490,689 L 491,690 L 505,690 L 506,691 L 515,691 L 516,690 L 526,690 L 527,689 L 538,688 L 539,687 L 542,687 L 543,686 L 546,686 L 547,685 L 555,683 L 577,672 L 579,670 L 583,668 L 592,660 L 593,660 L 603,650 L 603,649 L 608,644 L 608,643 L 611,640 L 611,639 L 615,634 L 626,612 L 626,610 L 628,606 L 628,603 L 629,602 L 629,599 L 630,598 L 631,589 L 632,588 L 632,579 L 633,578 L 633,562 L 632,561 L 632,554 L 631,553 L 631,549 L 630,548 L 630,543 L 629,542 L 629,540 L 628,539 L 628,537 L 627,536 L 625,528 L 622,523 L 622,521 L 617,511 L 615,509 L 615,508 L 613,506 Z" /><path d="M 493,462 L 482,451 L 481,451 L 476,447 L 474,447 L 473,446 L 469,447 L 467,449 L 460,453 L 456,457 L 455,457 L 451,461 L 450,461 L 439,472 L 438,472 L 437,474 L 427,484 L 427,485 L 417,496 L 417,497 L 411,504 L 411,505 L 405,513 L 403,518 L 401,520 L 401,522 L 399,525 L 399,527 L 397,530 L 397,532 L 404,538 L 408,540 L 410,540 L 413,542 L 417,542 L 418,543 L 427,543 L 428,542 L 431,542 L 433,541 L 439,535 L 439,534 L 441,532 L 443,528 L 446,525 L 446,524 L 451,519 L 451,518 L 456,513 L 456,512 L 466,502 L 466,501 L 479,488 L 480,488 L 488,480 L 489,480 L 498,472 Z" /><path d="M 623,416 L 620,416 L 619,415 L 615,415 L 614,414 L 601,414 L 600,415 L 596,415 L 595,416 L 590,417 L 588,419 L 586,423 L 586,425 L 577,443 L 575,445 L 575,446 L 573,448 L 573,449 L 571,451 L 567,458 L 561,465 L 561,466 L 556,471 L 556,472 L 534,494 L 533,494 L 530,497 L 529,497 L 525,500 L 525,501 L 530,506 L 530,507 L 537,514 L 538,514 L 545,520 L 551,523 L 555,523 L 561,520 L 567,515 L 568,515 L 584,500 L 584,499 L 595,487 L 599,480 L 602,477 L 602,476 L 606,471 L 607,468 L 609,466 L 616,452 L 616,450 L 619,445 L 619,443 L 620,442 L 620,440 L 621,439 L 621,437 L 623,433 L 624,426 L 626,422 L 626,418 Z" /><path d="M 450,378 L 449,382 L 447,385 L 446,393 L 445,394 L 445,401 L 446,402 L 446,407 L 449,412 L 454,413 L 460,416 L 462,418 L 467,420 L 469,422 L 470,422 L 472,424 L 473,424 L 475,426 L 482,430 L 486,434 L 487,434 L 495,441 L 496,441 L 508,453 L 509,453 L 523,468 L 524,470 L 529,470 L 533,468 L 535,466 L 539,464 L 548,455 L 548,454 L 553,448 L 554,446 L 554,443 L 534,422 L 533,422 L 525,414 L 524,414 L 515,406 L 514,406 L 511,403 L 510,403 L 496,393 L 491,391 L 489,389 L 477,383 L 475,383 L 470,380 L 467,380 L 466,379 L 464,379 L 463,378 L 459,378 L 458,377 L 451,377 Z" /><path d="M 375,366 L 367,370 L 365,372 L 362,373 L 360,375 L 356,377 L 353,380 L 352,380 L 348,384 L 347,384 L 333,398 L 333,399 L 328,404 L 328,405 L 325,408 L 325,409 L 321,414 L 320,417 L 318,419 L 312,431 L 312,433 L 310,436 L 310,438 L 309,439 L 309,441 L 307,445 L 307,448 L 306,449 L 306,452 L 305,453 L 305,457 L 304,458 L 304,465 L 303,466 L 303,493 L 304,494 L 304,500 L 305,501 L 305,505 L 306,506 L 306,510 L 308,514 L 308,517 L 310,520 L 311,525 L 314,530 L 315,534 L 317,536 L 320,543 L 322,545 L 324,549 L 327,552 L 327,553 L 330,556 L 330,557 L 345,572 L 346,572 L 350,576 L 351,576 L 354,579 L 360,582 L 362,584 L 367,586 L 369,588 L 371,588 L 374,590 L 376,590 L 379,592 L 381,592 L 382,593 L 384,593 L 388,595 L 396,596 L 397,597 L 401,597 L 402,598 L 412,598 L 413,599 L 435,598 L 436,597 L 441,597 L 442,596 L 445,596 L 446,595 L 449,595 L 450,594 L 453,594 L 454,593 L 459,592 L 471,586 L 473,586 L 475,584 L 482,581 L 485,578 L 489,576 L 486,573 L 485,573 L 482,570 L 481,570 L 474,563 L 473,563 L 466,556 L 466,555 L 462,551 L 461,549 L 458,549 L 449,554 L 447,554 L 443,556 L 440,556 L 436,558 L 430,558 L 429,559 L 409,559 L 408,558 L 402,558 L 398,556 L 392,555 L 387,552 L 385,552 L 381,550 L 376,546 L 373,545 L 357,529 L 357,528 L 353,523 L 351,518 L 349,516 L 347,512 L 347,510 L 345,507 L 345,505 L 343,501 L 343,498 L 342,497 L 342,494 L 341,493 L 341,486 L 340,485 L 340,471 L 341,470 L 341,464 L 342,463 L 342,459 L 343,458 L 343,455 L 344,454 L 345,449 L 347,446 L 347,444 L 350,438 L 352,436 L 353,433 L 356,430 L 356,429 L 359,426 L 359,425 L 376,409 L 376,403 L 375,402 L 375,373 L 376,372 L 376,368 L 377,367 Z" /><path d="M 567,365 L 541,378 L 539,380 L 532,384 L 528,388 L 527,388 L 522,393 L 523,394 L 530,397 L 532,399 L 539,403 L 542,406 L 543,406 L 552,415 L 556,414 L 558,412 L 561,411 L 563,409 L 566,408 L 568,406 L 572,404 L 574,404 L 577,402 L 579,402 L 583,400 L 586,400 L 587,399 L 590,399 L 591,398 L 596,398 L 597,397 L 615,397 L 616,398 L 622,398 L 626,400 L 629,400 L 630,401 L 635,402 L 649,410 L 652,413 L 653,413 L 663,423 L 663,424 L 669,431 L 672,437 L 674,439 L 674,441 L 678,449 L 678,451 L 680,455 L 680,458 L 681,459 L 681,463 L 682,464 L 682,473 L 683,474 L 683,482 L 682,483 L 682,490 L 681,491 L 681,495 L 680,496 L 680,499 L 679,500 L 678,505 L 676,508 L 676,510 L 672,518 L 670,520 L 669,523 L 666,526 L 666,527 L 654,539 L 653,539 L 646,545 L 647,561 L 648,562 L 648,572 L 647,573 L 647,583 L 646,584 L 646,591 L 648,591 L 658,586 L 660,584 L 667,580 L 670,577 L 674,575 L 690,560 L 690,559 L 699,549 L 700,546 L 704,541 L 713,523 L 713,521 L 715,517 L 715,514 L 717,510 L 717,506 L 718,505 L 718,501 L 719,500 L 719,494 L 720,493 L 720,465 L 719,464 L 719,458 L 718,457 L 717,449 L 716,448 L 716,445 L 715,444 L 714,439 L 712,436 L 711,431 L 704,417 L 702,415 L 701,412 L 699,410 L 697,406 L 694,403 L 694,402 L 690,398 L 690,397 L 678,385 L 677,385 L 673,381 L 672,381 L 662,373 L 646,365 L 644,365 L 643,364 L 641,364 L 637,362 L 634,362 L 630,360 L 625,360 L 624,359 L 617,359 L 616,358 L 597,358 L 596,359 L 589,359 L 588,360 L 584,360 L 583,361 L 580,361 L 579,362 L 576,362 L 575,363 Z" /><path d="M 889,334 L 875,334 L 874,333 L 871,334 L 870,333 L 866,333 L 865,334 L 847,334 L 846,335 L 837,335 L 836,336 L 829,336 L 828,337 L 817,338 L 816,339 L 812,339 L 811,340 L 807,340 L 806,341 L 803,341 L 802,342 L 795,343 L 791,345 L 785,346 L 780,349 L 779,353 L 778,354 L 778,358 L 776,362 L 775,369 L 774,370 L 774,372 L 773,373 L 773,375 L 772,376 L 770,384 L 768,387 L 767,392 L 765,394 L 766,395 L 767,395 L 771,392 L 773,392 L 774,391 L 776,391 L 777,390 L 779,390 L 780,389 L 782,389 L 786,387 L 789,387 L 790,386 L 792,386 L 793,385 L 795,385 L 799,383 L 802,383 L 803,382 L 806,382 L 807,381 L 810,381 L 811,380 L 814,380 L 815,379 L 818,379 L 819,378 L 823,378 L 824,377 L 828,377 L 829,376 L 834,376 L 835,375 L 841,375 L 842,376 L 841,384 L 839,388 L 839,391 L 837,395 L 837,398 L 836,399 L 836,401 L 835,402 L 835,404 L 834,405 L 832,413 L 830,416 L 830,418 L 826,426 L 826,428 L 822,435 L 822,437 L 815,451 L 813,453 L 811,458 L 809,460 L 805,468 L 803,470 L 799,477 L 796,480 L 794,484 L 787,492 L 787,493 L 780,500 L 780,501 L 759,522 L 758,522 L 748,531 L 744,533 L 741,536 L 740,536 L 737,539 L 736,539 L 731,543 L 715,551 L 711,558 L 703,567 L 703,568 L 687,584 L 686,584 L 681,589 L 680,589 L 677,592 L 676,592 L 673,595 L 672,595 L 669,598 L 668,598 L 663,602 L 660,603 L 653,608 L 640,614 L 640,615 L 648,615 L 649,614 L 659,614 L 660,613 L 666,613 L 667,612 L 671,612 L 672,611 L 675,611 L 676,610 L 680,610 L 684,608 L 687,608 L 688,607 L 694,606 L 697,604 L 705,602 L 708,600 L 710,600 L 713,598 L 715,598 L 728,591 L 730,591 L 734,588 L 743,584 L 751,578 L 754,577 L 756,575 L 763,571 L 770,565 L 771,565 L 775,561 L 776,561 L 779,558 L 780,558 L 787,551 L 788,551 L 808,531 L 808,530 L 820,517 L 820,516 L 823,513 L 823,512 L 826,509 L 826,508 L 829,505 L 829,504 L 832,501 L 832,500 L 838,492 L 839,489 L 846,479 L 849,472 L 851,470 L 863,446 L 863,444 L 867,437 L 868,432 L 870,429 L 871,424 L 873,421 L 873,419 L 874,418 L 874,416 L 875,415 L 875,413 L 877,409 L 877,406 L 878,405 L 878,403 L 880,399 L 881,392 L 882,391 L 883,385 L 884,384 L 884,380 L 885,379 L 885,376 L 886,375 L 886,371 L 887,370 L 887,366 L 888,365 L 888,361 L 889,360 L 889,355 L 890,354 L 890,348 L 891,347 L 891,341 L 892,340 L 892,336 Z" /><path d="M 131,336 L 131,342 L 132,343 L 132,348 L 133,349 L 133,354 L 134,355 L 134,360 L 135,361 L 135,366 L 136,367 L 137,376 L 138,377 L 138,380 L 139,381 L 139,385 L 140,386 L 140,389 L 141,390 L 142,396 L 144,400 L 144,403 L 146,407 L 146,410 L 147,411 L 148,416 L 150,419 L 152,427 L 156,435 L 156,437 L 159,442 L 159,444 L 161,447 L 161,449 L 173,473 L 175,475 L 180,485 L 182,487 L 185,493 L 187,495 L 189,499 L 192,502 L 196,509 L 200,513 L 200,514 L 207,522 L 207,523 L 212,528 L 212,529 L 237,554 L 238,554 L 250,565 L 251,565 L 254,568 L 255,568 L 258,571 L 262,573 L 268,578 L 271,579 L 273,581 L 281,585 L 283,587 L 294,592 L 296,594 L 298,594 L 312,601 L 320,603 L 323,605 L 326,605 L 330,607 L 333,607 L 337,609 L 340,609 L 341,610 L 344,610 L 345,611 L 350,611 L 351,612 L 354,612 L 355,613 L 361,613 L 362,614 L 368,614 L 369,615 L 379,615 L 379,614 L 369,609 L 367,609 L 365,607 L 362,606 L 360,604 L 359,604 L 357,602 L 351,599 L 348,596 L 344,594 L 339,589 L 338,589 L 333,584 L 332,584 L 320,572 L 320,571 L 314,565 L 314,564 L 308,557 L 304,550 L 295,546 L 293,544 L 289,542 L 286,539 L 285,539 L 279,534 L 278,534 L 268,525 L 267,525 L 243,501 L 243,500 L 233,489 L 233,488 L 226,480 L 226,479 L 218,468 L 217,465 L 213,460 L 210,453 L 208,451 L 198,431 L 198,429 L 196,426 L 196,424 L 192,416 L 191,411 L 189,408 L 189,406 L 188,405 L 188,403 L 187,402 L 187,400 L 185,396 L 185,393 L 183,389 L 183,386 L 182,385 L 182,382 L 181,381 L 181,378 L 180,376 L 181,375 L 189,375 L 190,376 L 199,377 L 200,378 L 203,378 L 204,379 L 208,379 L 209,380 L 212,380 L 213,381 L 220,382 L 224,384 L 231,385 L 232,386 L 240,388 L 243,390 L 251,392 L 256,395 L 257,393 L 252,384 L 252,382 L 251,381 L 251,379 L 250,378 L 250,376 L 248,372 L 248,369 L 247,368 L 247,365 L 246,364 L 246,361 L 245,360 L 245,357 L 244,356 L 244,351 L 243,349 L 240,347 L 238,347 L 237,346 L 235,346 L 231,344 L 224,343 L 220,341 L 216,341 L 215,340 L 211,340 L 210,339 L 206,339 L 205,338 L 201,338 L 200,337 L 194,337 L 193,336 L 177,335 L 176,334 L 156,334 L 155,333 L 152,333 L 151,334 L 134,334 Z" /><path d="M 607,327 L 589,309 L 588,309 L 584,305 L 580,303 L 574,298 L 571,297 L 569,295 L 555,288 L 553,288 L 550,286 L 548,286 L 547,285 L 545,285 L 541,283 L 537,283 L 536,282 L 533,282 L 532,281 L 526,281 L 525,280 L 509,280 L 507,279 L 506,280 L 493,280 L 492,281 L 482,282 L 481,283 L 478,283 L 477,284 L 474,284 L 473,285 L 465,287 L 458,291 L 456,291 L 452,294 L 447,296 L 439,302 L 438,302 L 434,306 L 433,306 L 429,310 L 428,310 L 420,318 L 420,319 L 415,324 L 415,325 L 407,335 L 396,357 L 396,359 L 394,363 L 394,366 L 392,370 L 391,380 L 390,381 L 390,390 L 389,391 L 389,404 L 390,405 L 390,415 L 391,416 L 391,421 L 392,422 L 392,425 L 393,426 L 393,430 L 394,431 L 395,438 L 397,441 L 397,443 L 400,449 L 400,451 L 408,467 L 410,469 L 414,477 L 416,478 L 420,473 L 420,472 L 424,468 L 424,467 L 443,450 L 443,448 L 441,444 L 439,442 L 433,430 L 433,428 L 431,425 L 430,419 L 429,418 L 429,414 L 428,413 L 428,405 L 427,404 L 427,395 L 428,394 L 428,387 L 429,386 L 429,383 L 430,382 L 430,379 L 431,378 L 433,370 L 438,360 L 440,358 L 444,351 L 461,334 L 462,334 L 470,328 L 478,324 L 480,324 L 483,322 L 485,322 L 489,320 L 492,320 L 493,319 L 497,319 L 498,318 L 507,318 L 508,317 L 515,317 L 516,318 L 526,318 L 527,319 L 531,319 L 535,321 L 538,321 L 541,323 L 543,323 L 555,329 L 557,331 L 564,335 L 575,345 L 578,345 L 579,344 L 583,344 L 584,343 L 590,343 L 591,342 L 612,342 L 613,343 L 617,343 L 617,341 L 615,339 L 613,335 L 610,332 L 610,331 L 607,328 Z" /><path d="M 274,188 L 274,189 L 272,191 L 272,195 L 271,196 L 271,198 L 269,202 L 269,205 L 267,209 L 267,212 L 266,213 L 266,216 L 265,217 L 265,220 L 264,221 L 264,225 L 263,226 L 263,230 L 262,231 L 262,235 L 261,236 L 261,240 L 260,241 L 260,247 L 259,248 L 259,252 L 258,253 L 258,260 L 257,261 L 257,270 L 256,271 L 256,288 L 255,289 L 255,311 L 256,312 L 256,327 L 257,328 L 257,339 L 258,340 L 258,346 L 259,347 L 259,351 L 260,352 L 260,357 L 261,358 L 262,366 L 263,367 L 263,370 L 264,371 L 265,378 L 267,382 L 267,385 L 268,386 L 269,391 L 271,394 L 272,399 L 274,402 L 274,404 L 276,407 L 276,409 L 281,418 L 281,420 L 284,424 L 287,431 L 289,433 L 291,437 L 293,434 L 294,429 L 299,419 L 299,417 L 307,401 L 309,399 L 310,396 L 313,392 L 313,390 L 308,380 L 308,378 L 307,377 L 307,375 L 306,374 L 306,372 L 304,368 L 304,365 L 302,361 L 302,358 L 301,357 L 301,354 L 300,353 L 300,350 L 299,349 L 299,344 L 298,343 L 298,338 L 297,337 L 297,332 L 296,331 L 296,322 L 295,321 L 295,284 L 296,283 L 296,275 L 297,274 L 297,267 L 298,266 L 298,261 L 299,260 L 299,256 L 300,255 L 300,251 L 302,247 L 302,244 L 305,241 L 306,241 L 309,243 L 311,243 L 331,253 L 333,255 L 335,255 L 340,259 L 348,263 L 355,269 L 356,269 L 366,277 L 367,277 L 375,284 L 378,279 L 379,273 L 381,270 L 381,268 L 383,265 L 383,263 L 385,260 L 385,258 L 387,255 L 387,253 L 390,248 L 390,246 L 385,242 L 384,242 L 381,239 L 380,239 L 377,236 L 376,236 L 359,224 L 354,222 L 352,220 L 344,216 L 342,214 L 318,202 L 316,202 L 309,198 L 304,197 L 301,195 L 296,194 L 293,192 L 291,192 L 287,190 L 284,190 L 283,189 L 280,189 L 279,188 Z" /><path d="M 748,187 L 746,188 L 742,188 L 738,190 L 735,190 L 734,191 L 732,191 L 731,192 L 729,192 L 728,193 L 726,193 L 725,194 L 717,196 L 712,199 L 710,199 L 703,203 L 701,203 L 689,209 L 687,211 L 678,215 L 676,217 L 673,218 L 671,220 L 663,224 L 661,226 L 660,226 L 658,228 L 657,228 L 655,230 L 654,230 L 652,232 L 645,236 L 642,239 L 638,241 L 632,247 L 638,259 L 638,261 L 640,264 L 640,266 L 642,269 L 642,272 L 644,275 L 646,283 L 647,284 L 649,284 L 661,273 L 662,273 L 668,268 L 669,268 L 680,260 L 683,259 L 685,257 L 717,241 L 719,241 L 721,243 L 721,246 L 723,250 L 723,254 L 724,255 L 724,258 L 725,259 L 726,269 L 727,270 L 727,277 L 728,278 L 728,292 L 729,293 L 729,309 L 728,310 L 728,324 L 727,325 L 727,332 L 726,333 L 726,338 L 725,339 L 724,349 L 723,350 L 723,353 L 722,354 L 721,361 L 719,365 L 719,368 L 718,369 L 718,371 L 717,372 L 715,380 L 711,388 L 711,392 L 714,396 L 716,401 L 718,403 L 724,415 L 724,417 L 726,419 L 726,421 L 728,424 L 728,426 L 729,427 L 729,429 L 730,430 L 730,432 L 732,436 L 735,433 L 747,409 L 748,404 L 751,399 L 751,397 L 752,396 L 752,394 L 753,393 L 753,391 L 754,390 L 754,388 L 755,387 L 755,385 L 757,381 L 757,378 L 759,374 L 759,371 L 760,370 L 760,367 L 761,366 L 761,363 L 762,362 L 762,358 L 763,357 L 763,352 L 764,351 L 765,341 L 766,340 L 766,334 L 767,333 L 767,322 L 768,321 L 768,281 L 767,280 L 767,268 L 766,267 L 766,259 L 765,258 L 764,246 L 763,245 L 763,241 L 762,240 L 762,235 L 761,234 L 761,231 L 760,230 L 760,226 L 759,225 L 759,222 L 758,221 L 758,217 L 757,216 L 756,209 L 754,205 L 754,202 L 752,199 L 752,196 L 751,195 L 750,190 Z" /><path d="M 398,272 L 397,282 L 396,283 L 396,287 L 395,288 L 395,295 L 394,296 L 394,319 L 395,320 L 395,324 L 396,324 L 398,322 L 399,319 L 405,312 L 405,311 L 412,304 L 412,303 L 415,300 L 416,300 L 427,289 L 428,289 L 432,285 L 434,284 L 435,280 L 437,277 L 438,272 L 441,267 L 441,265 L 452,243 L 456,238 L 460,230 L 463,227 L 464,224 L 468,220 L 468,219 L 473,213 L 473,212 L 485,199 L 485,198 L 495,188 L 496,188 L 505,179 L 506,179 L 509,176 L 512,175 L 514,176 L 518,180 L 519,180 L 544,205 L 544,206 L 548,210 L 548,211 L 557,222 L 557,223 L 567,237 L 568,240 L 570,242 L 573,249 L 575,251 L 577,255 L 577,257 L 582,266 L 582,268 L 584,271 L 584,273 L 586,276 L 588,284 L 590,286 L 594,288 L 598,292 L 599,292 L 618,311 L 618,312 L 625,320 L 626,323 L 628,324 L 628,316 L 629,315 L 629,303 L 628,302 L 628,293 L 627,292 L 627,286 L 626,285 L 626,280 L 625,279 L 625,276 L 624,275 L 624,271 L 623,270 L 623,267 L 622,266 L 622,263 L 621,262 L 619,254 L 617,251 L 617,249 L 615,246 L 615,244 L 613,241 L 613,239 L 602,217 L 600,215 L 598,210 L 596,208 L 595,205 L 593,203 L 589,196 L 586,193 L 584,189 L 577,181 L 577,180 L 567,169 L 567,168 L 543,144 L 542,144 L 537,139 L 536,139 L 533,136 L 532,136 L 528,132 L 527,132 L 512,120 L 511,120 L 501,128 L 497,130 L 493,134 L 492,134 L 488,138 L 487,138 L 482,143 L 481,143 L 472,152 L 471,152 L 452,172 L 452,173 L 446,179 L 446,180 L 443,183 L 443,184 L 439,188 L 439,189 L 436,192 L 434,196 L 431,199 L 431,200 L 427,205 L 426,208 L 424,210 L 423,213 L 421,215 L 418,222 L 416,224 L 414,228 L 414,230 L 410,237 L 410,239 L 405,249 L 405,251 L 404,252 L 404,254 L 403,255 L 403,257 L 402,258 L 402,260 L 400,264 L 399,271 Z" /></g></svg>